<svg xmlns="http://www.w3.org/2000/svg" width="1200" height="700" viewBox="0 0 1200 700">
<style>
text { font-family: -apple-system, BlinkMacSystemFont, 'Segoe UI', sans-serif; fill: #111827; }
.small { font-size: 12px; fill: #4b5563; }
.axis { stroke: #374151; stroke-width: 1; }
.grid { stroke: #e5e7eb; stroke-width: 1; }
.title { font-size: 24px; font-weight: 700; }
.label { font-size: 14px; fill: #374151; }
.value { font-size: 11px; fill: #111827; }
</style>
<rect width="100%" height="100%" fill="white"/>
<text x="600.0" y="38" text-anchor="middle" class="title">Надёжность и соответствие требованиям</text>
<line x1="80" y1="570.0" x2="1170" y2="570.0" class="grid"/>
<text x="70" y="574.0" text-anchor="end" class="small">0</text>
<line x1="80" y1="470.0" x2="1170" y2="470.0" class="grid"/>
<text x="70" y="474.0" text-anchor="end" class="small">20</text>
<line x1="80" y1="370.0" x2="1170" y2="370.0" class="grid"/>
<text x="70" y="374.0" text-anchor="end" class="small">40</text>
<line x1="80" y1="270.0" x2="1170" y2="270.0" class="grid"/>
<text x="70" y="274.0" text-anchor="end" class="small">60</text>
<line x1="80" y1="170.0" x2="1170" y2="170.0" class="grid"/>
<text x="70" y="174.0" text-anchor="end" class="small">80</text>
<line x1="80" y1="70.0" x2="1170" y2="70.0" class="grid"/>
<text x="70" y="74.0" text-anchor="end" class="small">100</text>
<line x1="80" y1="570" x2="1170" y2="570" class="axis"/>
<line x1="80" y1="70" x2="80" y2="570" class="axis"/>
<rect x="118.2" y="70.0" width="30.0" height="500.0" fill="#2563eb" rx="3"/>
<rect x="148.1" y="236.7" width="30.0" height="333.3" fill="#f59e0b" rx="3"/>
<rect x="178.1" y="236.7" width="30.0" height="333.3" fill="#10b981" rx="3"/>
<text x="148.125" y="588" text-anchor="middle" class="small" transform="rotate(20 148.125 588)">aya-expanse:8b</text>
<rect x="254.4" y="70.0" width="30.0" height="500.0" fill="#2563eb" rx="3"/>
<rect x="284.4" y="70.0" width="30.0" height="500.0" fill="#f59e0b" rx="3"/>
<rect x="314.4" y="70.0" width="30.0" height="500.0" fill="#10b981" rx="3"/>
<text x="284.375" y="588" text-anchor="middle" class="small" transform="rotate(20 284.375 588)">gemma3:12b</text>
<rect x="390.6" y="70.0" width="30.0" height="500.0" fill="#2563eb" rx="3"/>
<rect x="420.6" y="70.0" width="30.0" height="500.0" fill="#f59e0b" rx="3"/>
<rect x="450.6" y="70.0" width="30.0" height="500.0" fill="#10b981" rx="3"/>
<text x="420.625" y="588" text-anchor="middle" class="small" transform="rotate(20 420.625 588)">gemma3:4b</text>
<rect x="526.9" y="70.0" width="30.0" height="500.0" fill="#2563eb" rx="3"/>
<rect x="556.9" y="70.0" width="30.0" height="500.0" fill="#f59e0b" rx="3"/>
<rect x="586.9" y="570.0" width="30.0" height="0.0" fill="#10b981" rx="3"/>
<text x="556.875" y="588" text-anchor="middle" class="small" transform="rotate(20 556.875 588)">granite3.2:8b</text>
<rect x="663.1" y="70.0" width="30.0" height="500.0" fill="#2563eb" rx="3"/>
<rect x="693.1" y="236.7" width="30.0" height="333.3" fill="#f59e0b" rx="3"/>
<rect x="723.1" y="236.7" width="30.0" height="333.3" fill="#10b981" rx="3"/>
<text x="693.125" y="588" text-anchor="middle" class="small" transform="rotate(20 693.125 588)">phi4:14b</text>
<rect x="799.4" y="70.0" width="30.0" height="500.0" fill="#2563eb" rx="3"/>
<rect x="829.4" y="70.0" width="30.0" height="500.0" fill="#f59e0b" rx="3"/>
<rect x="859.4" y="70.0" width="30.0" height="500.0" fill="#10b981" rx="3"/>
<text x="829.375" y="588" text-anchor="middle" class="small" transform="rotate(20 829.375 588)">qwen2.5:14b</text>
<rect x="935.6" y="70.0" width="30.0" height="500.0" fill="#2563eb" rx="3"/>
<rect x="965.6" y="570.0" width="30.0" height="0.0" fill="#f59e0b" rx="3"/>
<rect x="995.6" y="570.0" width="30.0" height="0.0" fill="#10b981" rx="3"/>
<text x="965.625" y="588" text-anchor="middle" class="small" transform="rotate(20 965.625 588)">qwen2.5:3b</text>
<rect x="1071.9" y="70.0" width="30.0" height="500.0" fill="#2563eb" rx="3"/>
<rect x="1101.9" y="70.0" width="30.0" height="500.0" fill="#f59e0b" rx="3"/>
<rect x="1131.8" y="70.0" width="30.0" height="500.0" fill="#10b981" rx="3"/>
<text x="1101.875" y="588" text-anchor="middle" class="small" transform="rotate(20 1101.875 588)">qwen2.5:7b</text>
<rect x="80" y="655" width="14" height="14" fill="#2563eb"/>
<text x="102" y="667" class="small">JSON OK, %</text>
<rect x="300" y="655" width="14" height="14" fill="#f59e0b"/>
<text x="322" y="667" class="small">Problem OK, %</text>
<rect x="520" y="655" width="14" height="14" fill="#10b981"/>
<text x="542" y="667" class="small">Русская локализация, %</text>
</svg>