<svg xmlns="http://www.w3.org/2000/svg" width="1200" height="700" viewBox="0 0 1200 700">
<style>
text { font-family: -apple-system, BlinkMacSystemFont, 'Segoe UI', sans-serif; fill: #111827; }
.small { font-size: 12px; fill: #4b5563; }
.axis { stroke: #374151; stroke-width: 1; }
.grid { stroke: #e5e7eb; stroke-width: 1; }
.title { font-size: 24px; font-weight: 700; }
.label { font-size: 14px; fill: #374151; }
.value { font-size: 11px; fill: #111827; }
</style>
<rect width="100%" height="100%" fill="white"/>
<text x="600.0" y="38" text-anchor="middle" class="title">Время ответа на кейсах разного размера</text>
<line x1="80" y1="570.0" x2="1170" y2="570.0" class="grid"/>
<text x="70" y="574.0" text-anchor="end" class="small">0.00</text>
<line x1="80" y1="470.0" x2="1170" y2="470.0" class="grid"/>
<text x="70" y="474.0" text-anchor="end" class="small">2.03</text>
<line x1="80" y1="370.0" x2="1170" y2="370.0" class="grid"/>
<text x="70" y="374.0" text-anchor="end" class="small">4.06</text>
<line x1="80" y1="269.99999999999994" x2="1170" y2="269.99999999999994" class="grid"/>
<text x="70" y="273.99999999999994" text-anchor="end" class="small">6.10</text>
<line x1="80" y1="170.0" x2="1170" y2="170.0" class="grid"/>
<text x="70" y="174.0" text-anchor="end" class="small">8.13</text>
<line x1="80" y1="70.0" x2="1170" y2="70.0" class="grid"/>
<text x="70" y="74.0" text-anchor="end" class="small">10.16</text>
<line x1="80" y1="570" x2="1170" y2="570" class="axis"/>
<line x1="80" y1="70" x2="80" y2="570" class="axis"/>
<rect x="118.2" y="372.6" width="30.0" height="197.4" fill="#60a5fa" rx="3"/>
<rect x="148.1" y="351.7" width="30.0" height="218.3" fill="#f59e0b" rx="3"/>
<rect x="178.1" y="365.5" width="30.0" height="204.5" fill="#ef4444" rx="3"/>
<text x="148.125" y="588" text-anchor="middle" class="small" transform="rotate(20 148.125 588)">aya-expanse:8b</text>
<rect x="254.4" y="404.0" width="30.0" height="166.0" fill="#60a5fa" rx="3"/>
<rect x="284.4" y="370.6" width="30.0" height="199.4" fill="#f59e0b" rx="3"/>
<rect x="314.4" y="371.5" width="30.0" height="198.5" fill="#ef4444" rx="3"/>
<text x="284.375" y="588" text-anchor="middle" class="small" transform="rotate(20 284.375 588)">gemma3:12b</text>
<rect x="390.6" y="540.8" width="30.0" height="29.2" fill="#60a5fa" rx="3"/>
<rect x="420.6" y="539.7" width="30.0" height="30.3" fill="#f59e0b" rx="3"/>
<rect x="450.6" y="533.5" width="30.0" height="36.5" fill="#ef4444" rx="3"/>
<text x="420.625" y="588" text-anchor="middle" class="small" transform="rotate(20 420.625 588)">gemma3:4b</text>
<rect x="526.9" y="522.5" width="30.0" height="47.5" fill="#60a5fa" rx="3"/>
<rect x="556.9" y="506.2" width="30.0" height="63.8" fill="#f59e0b" rx="3"/>
<rect x="586.9" y="498.1" width="30.0" height="71.9" fill="#ef4444" rx="3"/>
<text x="556.875" y="588" text-anchor="middle" class="small" transform="rotate(20 556.875 588)">granite3.2:8b</text>
<rect x="663.1" y="341.3" width="30.0" height="228.7" fill="#60a5fa" rx="3"/>
<rect x="693.1" y="500.4" width="30.0" height="69.6" fill="#f59e0b" rx="3"/>
<rect x="723.1" y="300.5" width="30.0" height="269.5" fill="#ef4444" rx="3"/>
<text x="693.125" y="588" text-anchor="middle" class="small" transform="rotate(20 693.125 588)">phi4:14b</text>
<rect x="799.4" y="318.5" width="30.0" height="251.5" fill="#60a5fa" rx="3"/>
<rect x="829.4" y="302.8" width="30.0" height="267.2" fill="#f59e0b" rx="3"/>
<rect x="859.4" y="70.0" width="30.0" height="500.0" fill="#ef4444" rx="3"/>
<text x="829.375" y="588" text-anchor="middle" class="small" transform="rotate(20 829.375 588)">qwen2.5:14b</text>
<rect x="935.6" y="552.2" width="30.0" height="17.8" fill="#60a5fa" rx="3"/>
<rect x="965.6" y="551.1" width="30.0" height="18.9" fill="#f59e0b" rx="3"/>
<rect x="995.6" y="550.8" width="30.0" height="19.2" fill="#ef4444" rx="3"/>
<text x="965.625" y="588" text-anchor="middle" class="small" transform="rotate(20 965.625 588)">qwen2.5:3b</text>
<rect x="1071.9" y="514.2" width="30.0" height="55.8" fill="#60a5fa" rx="3"/>
<rect x="1101.9" y="492.6" width="30.0" height="77.4" fill="#f59e0b" rx="3"/>
<rect x="1131.8" y="427.3" width="30.0" height="142.7" fill="#ef4444" rx="3"/>
<text x="1101.875" y="588" text-anchor="middle" class="small" transform="rotate(20 1101.875 588)">qwen2.5:7b</text>
<rect x="80" y="655" width="14" height="14" fill="#60a5fa"/>
<text x="102" y="667" class="small">small</text>
<rect x="200" y="655" width="14" height="14" fill="#f59e0b"/>
<text x="222" y="667" class="small">medium</text>
<rect x="320" y="655" width="14" height="14" fill="#ef4444"/>
<text x="342" y="667" class="small">large</text>
</svg>