<svg xmlns="http://www.w3.org/2000/svg" width="960" height="534" viewBox="0 0 960 534">
<style>
text { font-family: -apple-system, BlinkMacSystemFont, 'Segoe UI', sans-serif; fill: #111827; }
.small { font-size: 12px; fill: #4b5563; }
.axis { stroke: #374151; stroke-width: 1; }
.grid { stroke: #e5e7eb; stroke-width: 1; }
.title { font-size: 24px; font-weight: 700; }
.label { font-size: 14px; fill: #374151; }
.value { font-size: 11px; fill: #111827; }
</style>
<rect width="100%" height="100%" fill="white"/>
<text x="480.0" y="38" text-anchor="middle" class="title">Матрица критериев выбора модели</text>
<text x="290.0" y="72" text-anchor="middle" class="label">Локализация</text>
<text x="430.0" y="72" text-anchor="middle" class="label">JSON</text>
<text x="570.0" y="72" text-anchor="middle" class="label">Problem</text>
<text x="710.0" y="72" text-anchor="middle" class="label">Large</text>
<text x="850.0" y="72" text-anchor="middle" class="label">Скорость</text>
<text x="208" y="119.0" text-anchor="end" class="label">aya-expanse:8b</text>
<rect x="220" y="90" width="140" height="48" fill="#aeab26" stroke="#ffffff" stroke-width="2"/>
<text x="290.0" y="119.0" text-anchor="middle" class="value">0.67</text>
<rect x="360" y="90" width="140" height="48" fill="#22c55e" stroke="#ffffff" stroke-width="2"/>
<text x="430.0" y="119.0" text-anchor="middle" class="value">1.00</text>
<rect x="500" y="90" width="140" height="48" fill="#aeab26" stroke="#ffffff" stroke-width="2"/>
<text x="570.0" y="119.0" text-anchor="middle" class="value">0.67</text>
<rect x="640" y="90" width="140" height="48" fill="#22c55e" stroke="#ffffff" stroke-width="2"/>
<text x="710.0" y="119.0" text-anchor="middle" class="value">1.00</text>
<rect x="780" y="90" width="140" height="48" fill="#f38e14" stroke="#ffffff" stroke-width="2"/>
<text x="850.0" y="119.0" text-anchor="middle" class="value">0.41</text>
<text x="208" y="167.0" text-anchor="end" class="label">gemma3:12b</text>
<rect x="220" y="138" width="140" height="48" fill="#22c55e" stroke="#ffffff" stroke-width="2"/>
<text x="290.0" y="167.0" text-anchor="middle" class="value">1.00</text>
<rect x="360" y="138" width="140" height="48" fill="#22c55e" stroke="#ffffff" stroke-width="2"/>
<text x="430.0" y="167.0" text-anchor="middle" class="value">1.00</text>
<rect x="500" y="138" width="140" height="48" fill="#22c55e" stroke="#ffffff" stroke-width="2"/>
<text x="570.0" y="167.0" text-anchor="middle" class="value">1.00</text>
<rect x="640" y="138" width="140" height="48" fill="#22c55e" stroke="#ffffff" stroke-width="2"/>
<text x="710.0" y="167.0" text-anchor="middle" class="value">1.00</text>
<rect x="780" y="138" width="140" height="48" fill="#f4990e" stroke="#ffffff" stroke-width="2"/>
<text x="850.0" y="167.0" text-anchor="middle" class="value">0.47</text>
<text x="208" y="215.0" text-anchor="end" class="label">gemma3:4b</text>
<rect x="220" y="186" width="140" height="48" fill="#22c55e" stroke="#ffffff" stroke-width="2"/>
<text x="290.0" y="215.0" text-anchor="middle" class="value">1.00</text>
<rect x="360" y="186" width="140" height="48" fill="#22c55e" stroke="#ffffff" stroke-width="2"/>
<text x="430.0" y="215.0" text-anchor="middle" class="value">1.00</text>
<rect x="500" y="186" width="140" height="48" fill="#22c55e" stroke="#ffffff" stroke-width="2"/>
<text x="570.0" y="215.0" text-anchor="middle" class="value">1.00</text>
<rect x="640" y="186" width="140" height="48" fill="#22c55e" stroke="#ffffff" stroke-width="2"/>
<text x="710.0" y="215.0" text-anchor="middle" class="value">1.00</text>
<rect x="780" y="186" width="140" height="48" fill="#33c157" stroke="#ffffff" stroke-width="2"/>
<text x="850.0" y="215.0" text-anchor="middle" class="value">0.96</text>
<text x="208" y="263.0" text-anchor="end" class="label">granite3.2:8b</text>
<rect x="220" y="234" width="140" height="48" fill="#ef4444" stroke="#ffffff" stroke-width="2"/>
<text x="290.0" y="263.0" text-anchor="middle" class="value">0.00</text>
<rect x="360" y="234" width="140" height="48" fill="#22c55e" stroke="#ffffff" stroke-width="2"/>
<text x="430.0" y="263.0" text-anchor="middle" class="value">1.00</text>
<rect x="500" y="234" width="140" height="48" fill="#22c55e" stroke="#ffffff" stroke-width="2"/>
<text x="570.0" y="263.0" text-anchor="middle" class="value">1.00</text>
<rect x="640" y="234" width="140" height="48" fill="#22c55e" stroke="#ffffff" stroke-width="2"/>
<text x="710.0" y="263.0" text-anchor="middle" class="value">1.00</text>
<rect x="780" y="234" width="140" height="48" fill="#59ba48" stroke="#ffffff" stroke-width="2"/>
<text x="850.0" y="263.0" text-anchor="middle" class="value">0.87</text>
<text x="208" y="311.0" text-anchor="end" class="label">phi4:14b</text>
<rect x="220" y="282" width="140" height="48" fill="#aeab26" stroke="#ffffff" stroke-width="2"/>
<text x="290.0" y="311.0" text-anchor="middle" class="value">0.67</text>
<rect x="360" y="282" width="140" height="48" fill="#22c55e" stroke="#ffffff" stroke-width="2"/>
<text x="430.0" y="311.0" text-anchor="middle" class="value">1.00</text>
<rect x="500" y="282" width="140" height="48" fill="#aeab26" stroke="#ffffff" stroke-width="2"/>
<text x="570.0" y="311.0" text-anchor="middle" class="value">0.67</text>
<rect x="640" y="282" width="140" height="48" fill="#22c55e" stroke="#ffffff" stroke-width="2"/>
<text x="710.0" y="311.0" text-anchor="middle" class="value">1.00</text>
<rect x="780" y="282" width="140" height="48" fill="#f4980e" stroke="#ffffff" stroke-width="2"/>
<text x="850.0" y="311.0" text-anchor="middle" class="value">0.47</text>
<text x="208" y="359.0" text-anchor="end" class="label">qwen2.5:14b</text>
<rect x="220" y="330" width="140" height="48" fill="#22c55e" stroke="#ffffff" stroke-width="2"/>
<text x="290.0" y="359.0" text-anchor="middle" class="value">1.00</text>
<rect x="360" y="330" width="140" height="48" fill="#22c55e" stroke="#ffffff" stroke-width="2"/>
<text x="430.0" y="359.0" text-anchor="middle" class="value">1.00</text>
<rect x="500" y="330" width="140" height="48" fill="#22c55e" stroke="#ffffff" stroke-width="2"/>
<text x="570.0" y="359.0" text-anchor="middle" class="value">1.00</text>
<rect x="640" y="330" width="140" height="48" fill="#22c55e" stroke="#ffffff" stroke-width="2"/>
<text x="710.0" y="359.0" text-anchor="middle" class="value">1.00</text>
<rect x="780" y="330" width="140" height="48" fill="#ef4444" stroke="#ffffff" stroke-width="2"/>
<text x="850.0" y="359.0" text-anchor="middle" class="value">0.00</text>
<text x="208" y="407.0" text-anchor="end" class="label">qwen2.5:3b</text>
<rect x="220" y="378" width="140" height="48" fill="#ef4444" stroke="#ffffff" stroke-width="2"/>
<text x="290.0" y="407.0" text-anchor="middle" class="value">0.00</text>
<rect x="360" y="378" width="140" height="48" fill="#22c55e" stroke="#ffffff" stroke-width="2"/>
<text x="430.0" y="407.0" text-anchor="middle" class="value">1.00</text>
<rect x="500" y="378" width="140" height="48" fill="#ef4444" stroke="#ffffff" stroke-width="2"/>
<text x="570.0" y="407.0" text-anchor="middle" class="value">0.00</text>
<rect x="640" y="378" width="140" height="48" fill="#f49212" stroke="#ffffff" stroke-width="2"/>
<text x="710.0" y="407.0" text-anchor="middle" class="value">0.44</text>
<rect x="780" y="378" width="140" height="48" fill="#22c55e" stroke="#ffffff" stroke-width="2"/>
<text x="850.0" y="407.0" text-anchor="middle" class="value">1.00</text>
<text x="208" y="455.0" text-anchor="end" class="label">qwen2.5:7b</text>
<rect x="220" y="426" width="140" height="48" fill="#22c55e" stroke="#ffffff" stroke-width="2"/>
<text x="290.0" y="455.0" text-anchor="middle" class="value">1.00</text>
<rect x="360" y="426" width="140" height="48" fill="#22c55e" stroke="#ffffff" stroke-width="2"/>
<text x="430.0" y="455.0" text-anchor="middle" class="value">1.00</text>
<rect x="500" y="426" width="140" height="48" fill="#22c55e" stroke="#ffffff" stroke-width="2"/>
<text x="570.0" y="455.0" text-anchor="middle" class="value">1.00</text>
<rect x="640" y="426" width="140" height="48" fill="#71b63e" stroke="#ffffff" stroke-width="2"/>
<text x="710.0" y="455.0" text-anchor="middle" class="value">0.81</text>
<rect x="780" y="426" width="140" height="48" fill="#82b338" stroke="#ffffff" stroke-width="2"/>
<text x="850.0" y="455.0" text-anchor="middle" class="value">0.77</text>
</svg>